<svg width="90" height="90" viewBox="0 0 90 90" fill="none" xmlns="http://www.w3.org/2000/svg">
<g clip-path="url(#clip0_86_16)">
<path d="M90 45C90 46.2156 89.9532 47.4078 89.8364 48.6C88.9714 59.5403 84.1325 69.4286 76.7922 76.7922C68.6338 84.9506 57.3896 90 45 90C41.6571 90 38.4078 89.626 35.2987 88.9247C33.1013 88.4571 30.9974 87.826 28.9403 87.0312C12.0623 80.5325 0 64.0987 0 45C0 32.6338 5.07273 21.3662 13.2078 13.2078C21.3662 5.04935 32.6104 0 45 0C57.3896 0 68.6338 5.04935 76.7922 13.2078C81.8883 18.3273 85.7922 24.6623 87.9896 31.7221C88.948 34.8312 89.5792 38.0571 89.8364 41.4C89.8597 41.6338 89.8831 41.8909 89.8831 42.1247C89.9766 43.0831 90 44.0182 90 45Z" fill="url(#paint0_linear_86_16)"/>
<path d="M90.0001 45C90.0001 46.2156 89.9533 47.4078 89.8364 48.6C88.9715 59.5403 84.1325 69.4286 76.7923 76.7922C68.6338 84.9506 57.3897 90 45.0001 90C41.6572 90 38.4078 89.626 35.2988 88.9247L18.9585 71.813L39.039 48.5065L19.2624 19.7299H36.3975L51.078 34.5039L63.7715 19.7299H70.878L89.1351 39.2727C89.4156 40.2078 89.6728 41.1662 89.8832 42.1247C89.9767 43.0831 90.0001 44.0182 90.0001 45Z" fill="#161616"/>
<path d="M72.1871 71.813H55.0521L42.1949 53.0883L26.0884 71.813H18.9819L39.0391 48.5065L19.2858 19.7532H36.4209L48.5767 37.4493L63.7949 19.7532H70.9014L51.7326 42.0312L72.2105 71.813H72.1871ZM56.1741 69.6857H68.1664L49.0443 41.8675L66.2728 21.8338H64.7534L48.3664 40.8857L35.2754 21.8338H23.2832L41.704 48.6234L23.5871 69.6857H25.1066L42.3819 49.6052L56.1741 69.6857ZM66.2962 68.7039H57.0858L25.1066 22.9792H34.317L66.2962 68.7039ZM58.1845 66.6H62.2287L33.2183 25.1065H29.1741L58.1845 66.6Z" fill="white"/>
</g>
<defs>
<linearGradient id="paint0_linear_86_16" x1="6.05455" y1="22.5117" x2="83.9455" y2="67.4883" gradientUnits="userSpaceOnUse">
<stop stop-color="#646464"/>
<stop offset="0.72" stop-color="#1D1D1D"/>
<stop offset="1"/>
</linearGradient>
<clipPath id="clip0_86_16">
<rect width="90" height="90" fill="white"/>
</clipPath>
</defs>
</svg>
